<?xml version="1.0" standalone="no"?><!DOCTYPE svg PUBLIC "-//W3C//DTD SVG 1.1//EN" "http://www.w3.org/Graphics/SVG/1.1/DTD/svg11.dtd"><svg t="1542348056179" class="icon" style="" viewBox="0 0 1024 1024" version="1.1" xmlns="http://www.w3.org/2000/svg" p-id="6418" xmlns:xlink="http://www.w3.org/1999/xlink" width="16" height="16"><defs><style type="text/css"></style></defs><path d="M64 512.710656c0-39.49568 30.201856-72.79616 69.82656-72.79616 41.172992 0 71.245824 33.30048 71.245824 72.79616 0 42.850304-30.072832 71.374848-71.245824 71.374848-44.40064-1.548288-69.82656-31.623168-69.82656-71.374848zM441.399296 512.710656c0-39.49568 30.201856-72.79616 69.82656-72.79616 41.172992 0 71.245824 33.30048 71.245824 72.79616 0 42.850304-30.072832 71.374848-71.245824 71.374848-44.40064-1.548288-69.82656-31.623168-69.82656-71.374848zM818.927616 512.710656c0-39.49568 30.201856-72.79616 69.82656-72.79616 41.172992 0 71.245824 33.30048 71.245824 72.79616 0 42.850304-30.072832 71.374848-71.245824 71.374848-44.40064-1.548288-69.82656-31.623168-69.82656-71.374848z" p-id="6419" fill="#d7cecc"></path></svg>