<?xml version="1.0" standalone="no"?><!DOCTYPE svg PUBLIC "-//W3C//DTD SVG 1.1//EN" "http://www.w3.org/Graphics/SVG/1.1/DTD/svg11.dtd"><svg t="1542350794739" class="icon" style="" viewBox="0 0 1871 1024" version="1.1" xmlns="http://www.w3.org/2000/svg" p-id="15666" xmlns:xlink="http://www.w3.org/1999/xlink" width="21.92578125" height="12"><defs><style type="text/css"></style></defs><path d="M1863.309447 486.283105a88.840183 88.840183 0 0 0-32.730594-53.771689C1583.930451 234.958904 1271.820862 0 935.163328 0S281.720406 234.958904 33.903054 432.511416a90.009132 90.009132 0 0 0-26.885845 105.205479 88.840183 88.840183 0 0 0 32.730594 53.771689C286.396205 789.041096 598.505794 1024 935.163328 1024s651.105023-233.789954 897.753425-431.342466a90.009132 90.009132 0 0 0 30.392694-106.374429z m-1637.69863 25.716895C427.839127 351.853881 670.98068 181.187215 935.163328 181.187215s506.155251 173.004566 709.552512 330.812785c-202.228311 157.808219-445.369863 328.474886-701.369863 328.474886s-514.3379-170.666667-717.73516-328.474886z" p-id="15667" fill="#999999"></path><path d="M935.163328 512m-270.027397 0a270.027397 270.027397 0 1 0 540.054794 0 270.027397 270.027397 0 1 0-540.054794 0Z" p-id="15668" fill="#999999"></path></svg>