<?xml version="1.0" standalone="no"?><!DOCTYPE svg PUBLIC "-//W3C//DTD SVG 1.1//EN" "http://www.w3.org/Graphics/SVG/1.1/DTD/svg11.dtd"><svg t="1542697481429" class="icon" style="" viewBox="0 0 1024 1024" version="1.1" xmlns="http://www.w3.org/2000/svg" p-id="19417" xmlns:xlink="http://www.w3.org/1999/xlink" width="18" height="18"><defs><style type="text/css"></style></defs><path d="M928.668444 479.459556c-17.934222 0-33.208889 14.549333-33.208889 32.483556l0 319.217778c0 17.934222-14.549333 32.483556-32.483556 32.483556L159.559111 863.644444c-17.934222 0-32.483556-14.549333-32.483556-32.483556L127.075556 248.974222c0-17.934222 14.549333-32.483556 32.483556-32.483556L381.297778 216.490667l0 0 0 0c17.934222 0 32.483556-17.095111 32.483556-35.029333s-14.549333-35.626667-32.483556-35.626667c-1.038222 0-1.92 0.483556-2.929778 0.583111L154.268444 146.417778C100.494222 146.389333 56.888889 190.065778 56.888889 243.925333l0 593.450667c0 53.873778 43.605333 97.536 97.379556 97.536l715.008 0c53.774222 0 97.379556-43.662222 97.379556-97.536L966.656 511.957333l-0.526222 0C966.129778 494.023111 946.602667 479.459556 928.668444 479.459556z" p-id="19418" fill="#ffffff"></path><path d="M383.900444 637.795556c-2.005333 4.309333-3.313778 8.988444-3.313778 14.037333 0 18.446222 14.976 33.422222 33.422222 33.422222 16.142222 0 28.984889-11.662222 32.128-26.908444l0.668444 0c38.784-198.172444 202.652444-351.274667 406.030222-374.272l-70.798222 70.798222c-13.070222 13.070222-13.070222 34.232889 0 47.274667 13.070222 13.070222 34.232889 13.070222 47.274667 0l128-128c13.070222-13.070222 13.070222-34.232889 0-47.274667l-128-128c-13.070222-13.070222-34.232889-13.070222-47.274667 0-13.070222 13.070222-13.070222 34.232889 0 47.274667l70.542222 70.542222C619.534222 239.900444 431.473778 412.828444 383.900444 637.795556z" p-id="19419" fill="#ffffff"></path></svg>