<?xml version="1.0" standalone="no"?><!DOCTYPE svg PUBLIC "-//W3C//DTD SVG 1.1//EN" "http://www.w3.org/Graphics/SVG/1.1/DTD/svg11.dtd"><svg t="1542606291046" class="icon" style="" viewBox="0 0 1024 1024" version="1.1" xmlns="http://www.w3.org/2000/svg" p-id="8976" xmlns:xlink="http://www.w3.org/1999/xlink" width="18" height="18"><defs><style type="text/css"></style></defs><path d="M1011.712 251.392c-17.355776-22.59968-48.917504-25.824256-79.425536-25.824256L195.931136 225.567744l-10.094592-74.059776c-5.73952-44.092416-27.33056-49.562624-75.669504-49.562624L32.02048 101.945344C9.043968 101.726208 3.072 125.069312 3.072 137.860096c0 12.791808 9.288704 32.398336 31.601664 32.277504L75.74528 170.1376c30.23872 0.3584 41.50272 17.7664 45.956096 39.428096l85.710848 569.785344c5.875712 45.085696 44.49792 73.23136 91.854848 73.23136l586.957824 0c18.965504-0.049152 34.395136-8.496128 34.146304-31.386624-0.23552-21.79584-14.516224-34.054144-34.146304-34.100224L314.627072 787.095552c-24.18176 0-39.914496-14.589952-42.784768-36.66944l-7.591936-48.759808 566.31296 0c43.098112 0 79.122432-23.607296 89.609216-63.020032l99.672064-321.457152C1026.98496 290.42688 1024 268.288 1011.712 251.392zM940.792832 350.565376l-79.60064 258.205696c-5.105664 19.185664-22.711296 27.394048-44.882944 27.394048L253.130752 636.16512 206.05952 292.088832l689.829888 0c16.021504 0 39.719936 1.284096 48.238592 12.38016C951.630848 314.232832 944.2304 337.660928 940.792832 350.565376zM409.121792 951.296c0 36.7616-29.801472 66.558976-66.56 66.558976s-66.56-29.797376-66.56-66.558976c0-36.759552 29.801472-66.558976 66.56-66.558976C379.322368 884.737024 409.121792 914.536448 409.121792 951.296zM831.561728 951.296c0 36.7616-29.802496 66.56-66.56 66.56-36.758528 0-66.56-29.7984-66.56-66.56 0-36.760576 29.801472-66.56 66.56-66.56C801.760256 884.736 831.561728 914.535424 831.561728 951.296z" p-id="8977" fill="#ffffff"></path></svg>