<?xml version="1.0" standalone="no"?><!DOCTYPE svg PUBLIC "-//W3C//DTD SVG 1.1//EN" "http://www.w3.org/Graphics/SVG/1.1/DTD/svg11.dtd"><svg t="1542693318073" class="icon" style="" viewBox="0 0 1024 1024" version="1.1" xmlns="http://www.w3.org/2000/svg" p-id="18285" xmlns:xlink="http://www.w3.org/1999/xlink" width="18" height="18"><defs><style type="text/css"></style></defs><path d="M921.6 238.90944c0 29.45024-23.86944 53.3248-53.31968 53.3248H155.71968C126.27456 292.23424 102.4 268.35968 102.4 238.90944c0-29.44512 23.87456-53.31968 53.31968-53.31968h712.56064c29.45024 0 53.31968 23.87456 53.31968 53.31968zM921.6 512c0 29.45024-23.86944 53.31968-53.31968 53.31968H155.71968C126.27456 565.31968 102.4 541.45024 102.4 512s23.87456-53.31968 53.31968-53.31968h712.56064C897.73056 458.68032 921.6 482.54976 921.6 512zM921.6 785.08544c0 29.45024-23.86944 53.3248-53.31968 53.3248H155.71968c-29.44512 0-53.31968-23.87456-53.31968-53.3248 0-29.44512 23.87456-53.31968 53.31968-53.31968h712.56064c29.45024 0 53.31968 23.87456 53.31968 53.31968z" p-id="18286" fill="#ffffff"></path></svg>