<?xml version="1.0" standalone="no"?><!DOCTYPE svg PUBLIC "-//W3C//DTD SVG 1.1//EN" "http://www.w3.org/Graphics/SVG/1.1/DTD/svg11.dtd"><svg t="1542614984897" class="icon" style="" viewBox="0 0 1024 1024" version="1.1" xmlns="http://www.w3.org/2000/svg" p-id="34048" xmlns:xlink="http://www.w3.org/1999/xlink" width="22" height="22"><defs><style type="text/css"></style></defs><path d="M376.832 595.968c-96.256-59.392-151.552-141.312-153.6-256-4.096-77.824 24.576-151.552 79.872-206.848C409.6 16.384 589.824 8.192 706.56 114.688l22.528 22.528c122.88 135.168 90.112 370.688-79.872 458.752 8.192 4.096 16.384 6.144 22.528 10.24 114.688 47.104 200.704 141.312 239.616 258.048 8.192 28.672 14.336 57.344 20.48 86.016v16.384c-2.048 12.288-12.288 20.48-24.576 18.432-12.288 0-22.528-8.192-24.576-20.48-4.096-24.576-8.192-47.104-14.336-69.632-47.104-143.36-143.36-233.472-290.816-260.096-126.976-22.528-237.568 14.336-327.68 106.496-61.44 57.344-96.256 133.12-106.496 215.04 0 12.288-8.192 24.576-20.48 26.624-12.288 4.096-26.624-4.096-30.72-16.384 0-4.096-2.048-6.144 0-10.24 6.144-65.536 28.672-129.024 63.488-186.368 47.104-75.776 116.736-133.12 198.656-165.888 6.144-2.048 10.24-4.096 16.384-6.144 2.048-2.048 2.048-2.048 6.144-2.048z m135.168-20.48c133.12 2.048 243.712-104.448 245.76-239.616 2.048-133.12-104.448-243.712-239.616-245.76-133.12-2.048-243.712 104.448-245.76 237.568-4.096 133.12 102.4 243.712 233.472 245.76 2.048 2.048 4.096 2.048 6.144 2.048z" fill="#bfbfbf" p-id="34049"></path></svg>