<?xml version="1.0" standalone="no"?><!DOCTYPE svg PUBLIC "-//W3C//DTD SVG 1.1//EN" "http://www.w3.org/Graphics/SVG/1.1/DTD/svg11.dtd"><svg t="1542626644233" class="icon" style="" viewBox="0 0 1024 1024" version="1.1" xmlns="http://www.w3.org/2000/svg" p-id="50550" xmlns:xlink="http://www.w3.org/1999/xlink" width="28" height="28"><defs><style type="text/css"></style></defs><path d="M511.999 847.883c-28.734 0-56.729-2.604-83.97-7.1L231.233 960.186 231.233 761.407C128.618 689.355 62.772 578.89 62.772 454.826c0-217.08 201.13-393.059 449.229-393.059 248.084 0 449.229 175.98 449.229 393.059C961.229 671.917 760.083 847.883 511.999 847.883zM511.999 117.917c-217.087 0-393.074 150.852-393.074 336.908 0 114.166 66.422 214.897 167.762 275.819l-1.769 130.234 132.172-79.456c30.448 6.498 62.117 10.311 94.91 10.311 217.102 0 393.073-150.825 393.073-336.907C905.073 268.77 729.102 117.917 511.999 117.917zM736.614 510.977c-31.011 0-56.153-25.128-56.153-56.149 0-31.011 25.143-56.152 56.153-56.152 31.012 0 56.153 25.143 56.153 56.152C792.768 485.849 767.624 510.977 736.614 510.977zM511.999 510.977c-31.011 0-56.153-25.128-56.153-56.149 0-31.011 25.144-56.152 56.153-56.152 31.012 0 56.154 25.143 56.154 56.152C568.154 485.849 543.011 510.977 511.999 510.977zM287.386 510.977c-31.011 0-56.153-25.128-56.153-56.149 0-31.011 25.143-56.152 56.153-56.152 31.011 0 56.152 25.143 56.152 56.152C343.538 485.849 318.396 510.977 287.386 510.977z" fill="#ffffff" p-id="50551"></path></svg>