<?xml version="1.0" standalone="no"?><!DOCTYPE svg PUBLIC "-//W3C//DTD SVG 1.1//EN" "http://www.w3.org/Graphics/SVG/1.1/DTD/svg11.dtd"><svg class="icon" width="18px" height="18.00px" viewBox="0 0 1024 1024" version="1.1" xmlns="http://www.w3.org/2000/svg"><path d="M150.271 399.152c-72.602 0-131.471 58.876-131.471 131.509 0 72.57 58.876 131.44 131.471 131.44s131.471-58.876 131.471-131.44c0-72.639-58.869-131.509-131.471-131.509z m0.005 224.112c-51.152 0-92.636-41.484-92.636-92.609 0-51.183 41.484-92.667 92.636-92.667s92.641 41.484 92.641 92.667c-0.005 51.126-41.489 92.609-92.641 92.609z m351.589-224.112c-72.602 0-131.471 58.876-131.471 131.509 0 72.57 58.876 131.44 131.471 131.44s131.471-58.876 131.471-131.44c0-72.639-58.869-131.509-131.471-131.509z m0.007 224.112c-51.152 0-92.636-41.484-92.636-92.609 0-51.183 41.484-92.667 92.636-92.667 51.147 0 92.628 41.484 92.628 92.667 0 51.126-41.476 92.609-92.628 92.609z m351.587-224.112c-72.602 0-131.471 58.876-131.471 131.509 0 72.57 58.876 131.44 131.471 131.44s131.471-58.876 131.471-131.44c0-72.639-58.869-131.509-131.471-131.509z m0.007 224.112c-51.152 0-92.636-41.484-92.636-92.609 0-51.183 41.484-92.667 92.636-92.667s92.636 41.484 92.636 92.667c0 51.126-41.476 92.609-92.636 92.609z" fill="#ffffff" /></svg>