<?xml version="1.0" standalone="no"?><!DOCTYPE svg PUBLIC "-//W3C//DTD SVG 1.1//EN" "http://www.w3.org/Graphics/SVG/1.1/DTD/svg11.dtd"><svg t="1542615679141" class="icon" style="" viewBox="0 0 1024 1024" version="1.1" xmlns="http://www.w3.org/2000/svg" p-id="35025" xmlns:xlink="http://www.w3.org/1999/xlink" width="22" height="22"><defs><style type="text/css"></style></defs><path d="M841.2 410.2H319.1v-78.7c0-116.7 95-211.7 211.7-211.7 116.7 0 211.7 95 211.7 211.7 0 15.5 12.5 28 28 28s28-12.5 28-28c0-147.6-120.1-267.7-267.7-267.7C385 63.9 266 181.1 263.2 326.2h-0.1v84h-62.7c-33.7 0-61 27.4-61 61v427.2c0 33.7 27.4 61 61 61h640.9c33.7 0 61-27.4 61-61V471.3c0-33.7-27.4-61.1-61.1-61.1z m5.1 488.3c0 2.8-2.3 5.1-5.1 5.1H200.4c-2.8 0-5.1-2.3-5.1-5.1V471.3c0-2.7 2.4-5.1 5.1-5.1h640.9c2.8 0 5.1 2.3 5.1 5.1v427.2z" p-id="35026" fill="#bfbfbf"></path><path d="M516.2 557.2c-32.4 0-58.6 26.2-58.6 58.6 0 21.5 11.5 40.2 28.7 50.4-0.2 1.2-0.3 2.5-0.3 3.7V775c0 15.7 12.9 28.6 28.6 28.6 15.7 0 28.6-12.9 28.6-28.6V669.9c0-0.7-0.1-1.4-0.1-2.1 18.8-9.8 31.6-29.4 31.6-52 0.1-32.4-26.1-58.6-58.5-58.6z" p-id="35027" fill="#bfbfbf"></path></svg>