<?xml version="1.0" standalone="no"?><!DOCTYPE svg PUBLIC "-//W3C//DTD SVG 1.1//EN" "http://www.w3.org/Graphics/SVG/1.1/DTD/svg11.dtd"><svg t="1542625664725" class="icon" style="" viewBox="0 0 1433 1024" version="1.1" xmlns="http://www.w3.org/2000/svg" p-id="46030" xmlns:xlink="http://www.w3.org/1999/xlink" width="41.982421875" height="30"><defs><style type="text/css"></style></defs><path d="M1077.056512 441.371648c-3.43552-18.161664-13.7216-29.896704-26.202112-29.896704l-0.453632 0.00512-3.30752 0.001024c-55.371776 0-100.419584-45.047808-100.419584-100.419584 0-17.685504 7.814144-36.384768 8.733696-38.526976 7.1424-16.072704 1.647616-35.781632-12.785664-45.852672l-0.68608-0.480256-91.190272-50.6624-0.728064-0.31744c-4.784128-2.077696-10.057728-3.132416-15.676416-3.132416-11.675648 0-23.094272 4.614144-30.550016 12.35456-0.417792 0.431104-42.166272 43.0848-78.61248 43.0848-36.780032 0-78.736384-43.481088-79.167488-43.931648-7.482368-7.882752-18.992128-12.589056-30.787584-12.589056-5.504 0-10.68032 1.016832-15.394816 3.02592l-0.748544 0.31744-94.41792 51.864576-0.708608 0.49152c-14.45888 10.044416-19.98336 29.727744-12.878848 45.722624 0.088064 0.191488 8.781824 20.221952 8.781824 38.6304 0 55.371776-45.048832 100.419584-100.421632 100.419584h-3.186688s-0.44032-0.007168-0.600064-0.007168c-12.466176 0-22.740992 11.73504-26.176512 29.893632-0.309248 1.642496-7.578624 40.580096-7.578624 70.892544 0 29.503488 6.801408 66.726912 7.5776 70.879232 3.44064 18.164736 13.725696 29.902848 26.200064 29.902848 0.11776 0 0.472064-0.012288 0.472064-0.012288h3.290112c55.3728 0 100.422656 45.049856 100.422656 100.42368 0 18.398208-8.660992 38.36416-8.733696 38.523904-7.133184 16.062464-1.656832 35.775488 12.729344 45.847552l0.689152 0.48128 89.457664 50.028544 0.734208 0.318464c4.762624 2.093056 10.006528 3.15392 15.586304 3.15392 11.798528 0 23.258112-4.801536 30.655488-12.847104 11.723776-12.740608 49.016832-45.80864 80.375808-45.80864 37.879808 0 80.472064 46.221312 80.910336 46.69952 7.409664 8.178688 18.950144 13.065216 30.86848 13.070336h0.004096c5.455872 0 10.60352-1.025024 15.290368-3.043328l0.744448-0.320512 92.734464-51.255296 0.705536-0.495616c14.434304-10.05568 19.944448-29.743104 12.821504-45.785088-0.088064-0.195584-8.756224-20.118528-8.756224-38.569984 0-55.373824 45.047808-100.42368 100.419584-100.42368h3.185664l0.524288 0.00512c12.512256 0 22.813696-11.732992 26.252288-29.90592 0.075776-0.395264 7.579648-39.877632 7.579648-70.874112 0-30.276608-7.268352-69.241856-7.5776-70.880256z m-32.182272 134.71744l-0.72192 3.991552-4.051968 0.20992c-70.851584 3.677184-126.354432 62.17216-126.354432 133.169152 0 23.840768 9.408512 46.886912 11.291648 51.264512l1.836032 4.260864-92.174336 50.945024-1.196032 0.054272c-0.113664 0.00512-0.23552 0.007168-0.371712 0.007168-2.390016 0-4.530176-0.846848-5.636096-1.57184l-0.5376-0.35328-0.436224-0.47616c-1.338368-1.465344-13.5936-14.698496-31.601664-28.064768-26.174464-19.44064-50.925568-29.297664-73.570304-29.297664-22.43072 0-46.998528 9.67168-73.024512 28.747776-17.678336 12.956672-30.099456 26.10688-31.45728 27.563008l-0.437248 0.468992-0.539648 0.347136c-1.098752 0.705536-3.217408 1.53088-5.572608 1.53088-0.16896 0-0.519168 0-0.95232-0.064512l-0.9216-0.139264-88.812544-49.660928 1.826816-4.241408c1.890304-4.386816 11.319296-27.482112 11.319296-51.323904 0-70.992896-55.498752-129.487872-126.348288-133.169152l-4.048896-0.20992-0.723968-3.989504c-1.14176-6.294528-6.839296-38.959104-6.839296-63.824896 0-24.713216 5.690368-57.503744 6.831104-63.82592l0.720896-3.9936 4.052992-0.210944c70.853632-3.680256 126.355456-62.174208 126.355456-133.167104 0-23.853056-9.399296-46.870528-11.283456-51.241984l-1.841152-4.274176 93.815808-51.52768 1.161216-0.064512c0.17408-0.009216 0.36864-0.017408 0.589824-0.017408 2.499584 0 4.907008 0.874496 6.183936 1.7408l0.447488 0.303104 0.37376 0.38912c1.335296 1.393664 13.558784 13.974528 31.135744 26.499072 25.686016 18.307072 49.84832 27.589632 71.815168 27.589632 21.757952 0 45.729792-9.10336 71.254016-27.058176 17.393664-12.232704 29.628416-24.624128 30.96576-25.997312l0.365568-0.374784 0.434176-0.292864c1.170432-0.791552 3.4816-1.717248 6.139904-1.717248 0.19968 0 0.379904 0.007168 0.56832 0.017408l1.216512 0.049152 90.756096 50.423808-1.825792 4.2496c-1.886208 4.393984-11.303936 27.513856-11.303936 51.301376 0 70.992896 55.501824 129.486848 126.35648 133.167104l4.051968 0.210944 0.719872 3.9936c1.14176 6.32832 6.832128 39.146496 6.832128 63.824896-0.001024 24.783872-5.69344 57.520128-6.833152 63.83104z" p-id="46031" fill="#ffffff"></path><path d="M723.264512 388.096c-27.02848 0-52.713472 8.5504-74.28096 24.725504-6.33344 4.750336-7.617536 13.73696-2.866176 20.0704 4.750336 6.33344 13.734912 7.617536 20.0704 2.8672C682.752 423.334912 702.488576 416.768 723.264512 416.768c52.51072 0 95.232 42.72128 95.232 95.232s-42.72128 95.232-95.232 95.232-95.232-42.72128-95.232-95.232c0-14.564352 3.197952-28.535808 9.503744-41.526272 3.457024-7.122944 0.4864-15.699968-6.636544-19.156992-7.124992-3.459072-15.699968-0.487424-19.156992 6.636544-8.215552 16.924672-12.381184 35.108864-12.381184 54.04672 0 68.32128 55.58272 123.904 123.904 123.904s123.904-55.58272 123.904-123.904-55.584768-123.904-123.905024-123.904z" p-id="46032" fill="#ffffff"></path></svg>