<?xml version="1.0" standalone="no"?><!DOCTYPE svg PUBLIC "-//W3C//DTD SVG 1.1//EN" "http://www.w3.org/Graphics/SVG/1.1/DTD/svg11.dtd"><svg t="1542624871160" class="icon" style="" viewBox="0 0 1024 1024" version="1.1" xmlns="http://www.w3.org/2000/svg" p-id="41602" xmlns:xlink="http://www.w3.org/1999/xlink" width="80" height="80"><defs><style type="text/css"></style></defs><path d="M512 1024C229.2224 1024 0 794.6752 0 512 0 229.2224 229.2224 0 512 0c282.7264 0 512 229.2224 512 512 0 282.7264-229.2736 512-512 512z m225.3824-400.8448c-45.312-20.3264-27.8528-4.7616-83.456-25.6-55.6032-20.736-68.7616-27.5456-68.7616-27.5456l3.2256-36.352s51.0464-15.872 60.6208-78.1312c19.2 4.7104 25.7024-18.944 26.7264-34.0992 1.1776-14.6432 11.3664-60.2112-12.1344-56.1664 4.8128-30.4128 8.6016-57.9072 6.8608-72.4992-5.8368-51.0976-47.7184-104.448-153.344-108.3904a209.6128 209.6128 0 0 0-69.4784 14.592c-7.7824 3.072-58.368-3.2256-65.1776 10.5984-3.6864 7.5264 7.68 30.3616 1.536 35.2768-24.7296 19.8656-18.0736 23.3984-20.8896 47.9744-1.6896 14.592 1.7408 42.0352 6.5536 72.5504-23.4496-4.096-13.312 41.472-12.288 56.1152 1.0752 15.1552 7.424 38.912 26.6752 34.2016 9.5744 62.2592 71.9872 78.2848 71.9872 78.2848l3.2256 36.5056s-13.1584 7.2704-68.7616 28.0576c-55.6032 20.7872-38.144 4.3008-83.456 24.576C235.52 655.36 235.52 743.7312 235.52 743.7312c0 13.4144 12.032 24.32 26.88 24.32h519.68c14.848 0 26.88-10.9056 26.88-24.2688v-0.0512s0-88.3712-71.5776-120.5248z" fill="#C5C5C5" p-id="41603"></path></svg>