<?xml version="1.0" standalone="no"?><!DOCTYPE svg PUBLIC "-//W3C//DTD SVG 1.1//EN" "http://www.w3.org/Graphics/SVG/1.1/DTD/svg11.dtd"><svg t="1542607810853" class="icon" style="" viewBox="0 0 1024 1024" version="1.1" xmlns="http://www.w3.org/2000/svg" p-id="32860" xmlns:xlink="http://www.w3.org/1999/xlink" width="20" height="20"><defs><style type="text/css"></style></defs><path d="M511.5904 36.4544C249.2416 36.4544 35.84 219.136 35.84 443.8016c0 123.4944 66.9696 239.8208 183.7056 318.8736 15.5648 10.6496 36.6592 6.5536 47.104-9.0112 10.4448-15.5648 6.5536-36.6592-9.0112-47.104-97.6896-66.3552-153.8048-161.9968-153.8048-262.7584C103.8336 256.6144 286.72 104.448 511.5904 104.448s407.7568 152.1664 407.7568 339.3536c0 187.1872-182.8864 339.3536-407.7568 339.3536-2.048 0-3.8912 0.8192-5.9392 1.2288-15.9744-2.8672-32.3584 5.5296-38.0928 21.504-6.5536 18.432-49.152 49.5616-99.9424 78.2336 18.432-61.6448 9.6256-74.9568 3.6864-83.7632-7.168-10.6496-19.0464-16.9984-31.744-16.9984-18.8416 0-33.9968 15.1552-33.9968 33.9968 0 6.144 1.6384 11.8784 4.5056 16.9984-3.4816 19.2512-18.2272 64.512-35.0208 105.8816-5.3248 12.9024-2.048 27.648 7.7824 37.2736 6.5536 6.144 14.9504 9.6256 23.552 9.6256 4.7104 0 9.4208-1.024 13.7216-2.8672 38.7072-17.2032 156.8768-73.3184 199.2704-133.3248C778.0352 847.2576 987.136 666.2144 987.136 444.0064c0.2048-224.6656-213.1968-407.552-475.5456-407.552z m-182.272 343.2448c-33.5872 0-61.0304 27.4432-61.0304 61.0304s27.4432 61.0304 61.0304 61.0304 61.0304-27.4432 61.0304-61.0304-27.4432-61.0304-61.0304-61.0304z m183.0912 0c-33.5872 0-61.0304 27.4432-61.0304 61.0304s27.4432 61.0304 61.0304 61.0304 61.0304-27.4432 61.0304-61.0304-27.2384-61.0304-61.0304-61.0304z m183.296 0c-33.5872 0-61.0304 27.4432-61.0304 61.0304s27.4432 61.0304 61.0304 61.0304 61.0304-27.4432 61.0304-61.0304-27.4432-61.0304-61.0304-61.0304z m0 0" p-id="32861" fill="#ffffff"></path></svg>