<?xml version="1.0" standalone="no"?><!DOCTYPE svg PUBLIC "-//W3C//DTD SVG 1.1//EN" "http://www.w3.org/Graphics/SVG/1.1/DTD/svg11.dtd"><svg t="1542615769750" class="icon" style="" viewBox="0 0 1024 1024" version="1.1" xmlns="http://www.w3.org/2000/svg" p-id="35967" xmlns:xlink="http://www.w3.org/1999/xlink" width="22" height="22"><defs><style type="text/css"></style></defs><path d="M982.143707 393.304667C867.62244 238.875482 699.511651 141.095505 511.819898 141.095505c-187.736778 0-355.148649 97.779977-470.324832 252.209162-50.834782 68.144006-50.834782 169.290661 0 237.390666 115.176183 154.429185 283.242969 252.209162 470.324832 252.209162 187.691753 0 355.1026-97.779977 470.323809-252.209162 50.834782-68.100004 50.834782-169.245635 0-237.390666zM512.474814 748.05832c-130.780579 0-237.172701-105.910145-237.172701-236.035807 0-130.169665 106.391099-236.035808 237.172701-236.035808 130.825604 0 237.216703 105.866143 237.216703 236.035808 0 130.125663-106.391099 236.035808-237.216703 236.035807z m0-404.62755c-93.496417 0-169.421644 75.532277-169.421644 168.591743 0 93.058442 75.924203 168.590719 169.421644 168.590719 93.541443 0 169.421644-75.532277 169.421644-168.590719 0-93.059466-75.880201-168.591743-169.421644-168.591743z" p-id="35968" fill="#bfbfbf"></path></svg>